<svg width="58" height="58" viewBox="0 0 58 58" fill="none" xmlns="http://www.w3.org/2000/svg">
<path d="M51.08 47.4181C54.042 43.8544 56.1021 39.6296 57.086 35.1013C58.0699 30.5729 57.9487 25.8742 56.7326 21.4026C55.5165 16.931 53.2414 12.8181 50.0996 9.41178C46.9578 6.00546 43.0418 3.40595 38.6828 1.83315C34.3239 0.260346 29.6503 -0.23947 25.0573 0.375979C20.4644 0.991429 16.0872 2.70404 12.2961 5.36893C8.50505 8.03382 5.41157 11.5726 3.27739 15.6859C1.14321 19.7992 0.0311084 24.366 0.0351673 29C0.0367249 35.7365 2.41064 42.2573 6.74036 47.4181L6.6991 47.4532C6.84348 47.6264 7.00848 47.7749 7.15698 47.9461C7.34261 48.1586 7.54267 48.3586 7.73448 48.5649C8.31198 49.1919 8.90598 49.7941 9.52886 50.3593C9.71861 50.5325 9.91454 50.6934 10.1064 50.8584C10.7664 51.4276 11.4449 51.968 12.1482 52.4713C12.239 52.5331 12.3215 52.6136 12.4122 52.6775V52.6528C17.2428 56.0521 23.0054 57.8765 28.9122 57.8765C34.819 57.8765 40.5816 56.0521 45.4122 52.6528V52.6775C45.503 52.6136 45.5834 52.5331 45.6762 52.4713C46.3775 51.9659 47.0581 51.4276 47.7181 50.8584C47.9099 50.6934 48.1059 50.5304 48.2956 50.3593C48.9185 49.7921 49.5125 49.1919 50.09 48.5649C50.2818 48.3586 50.4798 48.1586 50.6675 47.9461C50.8139 47.7749 50.981 47.6264 51.1254 47.4511L51.08 47.4181ZM28.9102 12.5C30.7458 12.5 32.5403 13.0443 34.0666 14.0642C35.5928 15.084 36.7824 16.5336 37.4849 18.2295C38.1874 19.9254 38.3712 21.7916 38.0131 23.5919C37.655 25.3923 36.771 27.0461 35.473 28.3441C34.175 29.6421 32.5212 30.5261 30.7208 30.8842C28.9205 31.2423 27.0543 31.0585 25.3584 30.356C23.6625 29.6535 22.2129 28.4639 21.1931 26.9376C20.1733 25.4114 19.6289 23.6169 19.6289 21.7813C19.6289 19.3197 20.6068 16.959 22.3473 15.2184C24.0879 13.4779 26.4486 12.5 28.9102 12.5ZM12.4246 47.4181C12.4604 44.71 13.5609 42.1248 15.4882 40.2219C17.4154 38.319 20.0143 37.2514 22.7227 37.25H35.0977C37.806 37.2514 40.405 38.319 42.3322 40.2219C44.2594 42.1248 45.36 44.71 45.3957 47.4181C40.8723 51.4943 34.9992 53.7502 28.9102 53.7502C22.8211 53.7502 16.948 51.4943 12.4246 47.4181Z" fill="#979797"/>
</svg>
